<svg xmlns="http://www.w3.org/2000/svg" xmlns:xlink="http://www.w3.org/1999/xlink" viewBox="0 0 397.15 246.02"><defs><style>.cls-1{isolation:isolate;}.cls-2,.cls-3{mix-blend-mode:multiply;}.cls-2{fill:url(#radial-gradient);}.cls-3{fill:url(#radial-gradient-2);}.cls-4{fill:url(#radial-gradient-3);}</style><radialGradient id="radial-gradient" cx="93.33" cy="177.77" r="139.32" gradientTransform="translate(61.6 -29.3) scale(0.98 0.81)" gradientUnits="userSpaceOnUse"><stop offset="0" stop-color="#474545"/><stop offset="0.38" stop-color="#8c8b87" stop-opacity="0.54"/><stop offset="0.77" stop-color="#c8c7c0" stop-opacity="0.15"/><stop offset="1" stop-color="#deddd5" stop-opacity="0"/></radialGradient><radialGradient id="radial-gradient-2" cx="186.18" cy="190.29" r="139.32" gradientTransform="translate(61.6 -23.47) scale(0.98 0.81)" xlink:href="#radial-gradient"/><radialGradient id="radial-gradient-3" cx="265.78" cy="52.11" r="542.32" gradientUnits="userSpaceOnUse"><stop offset="0" stop-color="#fff"/><stop offset="0.12" stop-color="#fbfbfa"/><stop offset="1" stop-color="#deddd5"/></radialGradient></defs><g class="cls-1"><g id="Layer_2" data-name="Layer 2"><g id="OBJECTS"><path class="cls-2" d="M306.15,115c0,63.52-78.67,115-153.37,115S0,178.53,0,115,78.08,0,152.78,0,306.15,51.49,306.15,115Z"/><path class="cls-3" d="M397.15,131c0,63.52-78.67,115-153.37,115S91,194.53,91,131,169.08,16,243.78,16,397.15,67.49,397.15,131Z"/><polygon class="cls-4" points="350.83 92.52 254.67 0.02 254.67 42.02 63.67 42.02 63.67 147.02 254.67 147.02 254.67 188.02 350.83 92.52"/></g></g></g></svg>